<svg xmlns="http://www.w3.org/2000/svg" viewBox="0 0 137.8 180.77">
  <defs>
    <style>
      .cls-1 {
        fill: #9a0;
      }

      .cls-2 {
        fill: #cddc39;
      }

      .cls-3 {
        fill: #ffff6e;
        opacity: 0.52;
      }
    </style>
  </defs>
  <title>Asset 3</title>
  <g id="Layer_2" data-name="Layer 2">
    <g id="ped">
      <g id="hair">
        <g id="hairBack">
          <path class="cls-1" d="M45.72,180.77c-55.08,0-53-106-22-129s81-80,63-32c-15.09,40.23-74.95,114-16,59,60-56,80-91,59-8-20.18,79.72-113,71-30,69C152.47,138.5,60.72,180.77,45.72,180.77Z"/>
        </g>
        <path id="hairFront" class="cls-2" d="M43.72,175.77c-55.08,0-53-106-22-129s83-71,63-32c-19.61,38.24-74.95,114-16,59,60-56,83.72-82.45,59-8-25.93,78-91.45,61-30,69C150,141.6,58.72,175.77,43.72,175.77Z"/>
        <path id="hair_highlight" class="cls-3" d="M86.31,7.36C74.39,13.52,56.5,21.77,40.71,37s-26.45,26.9-26,30.79,18-9,31-23C58.37,31.14,86.31,7.36,86.31,7.36Z"/>
      </g>
    </g>
  </g>
</svg>
